<svg xmlns="http://www.w3.org/2000/svg" width="55" height="53" viewBox="0 0 55 53" fill="none">
    <path
        d="M55.0001 29.5C55.0001 42.4787 44.4788 53 31.5001 53C18.5214 53 0.99992 39.9787 0.99992 27C-2.5 4.99997 15.9999 -1.00004 29.5001 0.999961C42.4788 0.999961 55.0001 16.5213 55.0001 29.5Z"
        fill="url(#paint0_radial_5_29)" />
    <path
        d="M44 23.7597C44 32.3201 37.0604 39.7597 28.5 39.7597C16.5 39.7597 7.5 32.3201 7.5 23.7597C7.5 15.1992 14.5 5.75967 28.5 8.25966C37.0604 8.25966 44 15.1992 44 23.7597Z"
        fill="#232B2D" />
    <path
        d="M31.0001 20.3776C32.0001 22.8776 33.4656 29.7204 30.5 30.3776C27.5344 31.0348 17.5002 25.8777 18.1305 22.0676C17.4733 19.102 21.0001 15.3776 24.0001 15.3776C26.9657 14.7204 30.3429 17.412 31.0001 20.3776Z"
        fill="#14181B" />
    <defs>
        <radialGradient id="paint0_radial_5_29" cx="0" cy="0" r="1" gradientUnits="userSpaceOnUse"
            gradientTransform="translate(28 27) rotate(90) scale(26 27.0287)">
            <stop stop-color="white" />
            <stop offset="0.456" stop-color="#BAE1E3" />
            <stop offset="0.781" stop-color="#6EC1C5" />
            <stop offset="1" stop-color="#355D5F" />
        </radialGradient>
    </defs>
</svg>