<svg xmlns="http://www.w3.org/2000/svg" width="133" height="133" viewBox="0 0 133 133" fill="none">
    <path
        d="M65.7493 107.048C65.2991 107.048 64.8788 106.928 64.4884 106.718L60.4955 104.346C59.8949 104.016 60.1952 103.896 60.3755 103.836C61.186 103.565 61.3361 103.505 62.1767 103.025C62.2668 102.965 62.3871 102.995 62.477 103.055L65.5394 104.886C65.6594 104.946 65.8095 104.946 65.8994 104.886L77.8785 97.9511C77.9985 97.8911 78.0588 97.7708 78.0588 97.6209V83.7806C78.0588 83.6302 77.9985 83.5105 77.8785 83.4502L65.8994 76.5451C65.7794 76.4848 65.6293 76.4848 65.5394 76.5451L53.5603 83.4502C53.4403 83.5102 53.38 83.6604 53.38 83.7804V97.6207C53.38 97.741 53.4403 97.8908 53.5603 97.9511L56.8328 99.8425C58.6042 100.743 59.7149 99.6923 59.7149 98.6416V84.9813C59.7149 84.8012 59.8651 84.621 60.0752 84.621H61.6063C61.7865 84.621 61.9666 84.7711 61.9666 84.9813V98.6416C61.9666 101.013 60.6755 102.394 58.4239 102.394C57.7334 102.394 57.1931 102.394 55.6618 101.644L52.5095 99.8425C51.7289 99.3923 51.2486 98.5514 51.2486 97.6508V83.8105C51.2486 82.9099 51.7289 82.069 52.5095 81.6189L64.4884 74.6836C65.2391 74.2633 66.26 74.2633 67.0104 74.6836L78.9893 81.6189C79.7699 82.069 80.2504 82.9099 80.2504 83.8105V97.6508C80.2504 98.5514 79.7699 99.3923 78.9893 99.8425L67.0104 106.778C66.62 106.958 66.1696 107.048 65.7493 107.048ZM69.4421 97.5308C64.1883 97.5308 63.1074 95.129 63.1074 93.0875C63.1074 92.9072 63.2576 92.7272 63.4677 92.7272H65.0289C65.209 92.7272 65.3591 92.8472 65.3591 93.0275C65.5994 94.6186 66.2898 95.3992 69.4722 95.3992C71.994 95.3992 73.0752 94.8287 73.0752 93.4777C73.0752 92.6971 72.7746 92.1269 68.8418 91.7365C65.5693 91.406 63.5277 90.6857 63.5277 88.0738C63.5277 85.6418 65.5695 84.2007 68.9919 84.2007C72.8346 84.2007 74.7262 85.5218 74.9665 88.4037C74.9665 88.4941 74.9364 88.584 74.8764 88.6741C74.8161 88.7341 74.7262 88.7941 74.6361 88.7941H73.0749C72.9248 88.7941 72.7746 88.6741 72.7448 88.5239C72.3845 86.8729 71.4537 86.3323 68.9919 86.3323C66.2298 86.3323 65.8994 87.2932 65.8994 88.0135C65.8994 88.8842 66.2898 89.1544 70.0125 89.6347C73.7054 90.1153 75.4468 90.8057 75.4468 93.3875C75.4167 96.0296 73.2552 97.5308 69.4421 97.5308Z"
        fill="#8CCED7" />
    <path
        d="M28.5815 52.9173C28.5815 52.377 28.2812 51.8663 27.8009 51.5962L15.0713 44.2708C14.8609 44.1505 14.6209 44.0905 14.3809 44.0603H14.2606C14.0206 44.0603 13.7803 44.1505 13.5702 44.2708L0.840593 51.5962C0.360027 51.8663 0.0599976 52.3767 0.0599976 52.9173L0.0901304 72.612C0.0901304 72.8821 0.240275 73.1523 0.480298 73.2726C0.720582 73.4227 1.02061 73.4227 1.23102 73.2726L8.7967 68.9493C9.277 68.6791 9.57729 68.1687 9.57729 67.6284V58.4114C9.57729 57.871 9.87732 57.3606 10.3579 57.0905L13.5702 55.229C13.8104 55.0788 14.0806 55.0186 14.3507 55.0186C14.6209 55.0186 14.8911 55.0788 15.1015 55.229L18.3137 57.0905C18.7943 57.3606 19.0943 57.8708 19.0943 58.4114V67.6284C19.0943 68.1687 19.3946 68.6791 19.8749 68.9493L27.4406 73.2726C27.6809 73.4227 27.9809 73.4227 28.2212 73.2726C28.4615 73.1523 28.6116 72.8821 28.6116 72.612L28.5815 52.9173ZM89.7675 25.8069C89.5275 25.6866 89.2272 25.6866 89.0167 25.8069C88.7767 25.957 88.6266 26.197 88.6266 26.4672V45.9821C88.6266 46.1621 88.5367 46.3421 88.3564 46.4624C88.1764 46.5523 87.9961 46.5523 87.8161 46.4624L84.6337 44.6311C84.4004 44.4982 84.1365 44.4284 83.8681 44.4284C83.5996 44.4284 83.3357 44.4982 83.1024 44.6311L70.3728 51.9866C69.8925 52.2567 69.5923 52.7672 69.5923 53.3075V67.9884C69.5923 68.5287 69.8925 69.0394 70.3728 69.3096L83.1024 76.6651C83.3357 76.7979 83.5996 76.8678 83.8681 76.8678C84.1365 76.8678 84.4004 76.7979 84.6337 76.6651L97.3633 69.3096C97.8436 69.0394 98.1439 68.529 98.1439 67.9884V31.3911C98.1439 30.8206 97.8436 30.3104 97.3633 30.04L89.7675 25.8069ZM88.5967 63.1549C88.5967 63.3051 88.5367 63.4251 88.4164 63.4851L84.0633 66.0069C84.0025 66.0366 83.9357 66.052 83.8681 66.052C83.8004 66.052 83.7337 66.0366 83.6729 66.0069L79.3197 63.4851C79.1994 63.4251 79.1394 63.275 79.1394 63.1549V58.1111C79.1394 57.9609 79.1994 57.8409 79.3197 57.7809L83.6729 55.2588C83.7337 55.2292 83.8004 55.2138 83.8681 55.2138C83.9357 55.2138 84.0025 55.2292 84.0633 55.2588L88.4164 57.7809C88.5367 57.8407 88.5967 57.9911 88.5967 58.1111V63.1549ZM132.129 57.9911C132.61 57.7209 132.88 57.2105 132.88 56.6699V53.0973C132.88 52.557 132.58 52.0466 132.129 51.7764L119.49 44.451C119.257 44.3182 118.993 44.2484 118.724 44.2484C118.456 44.2484 118.192 44.3182 117.959 44.451L105.229 51.8063C104.749 52.0765 104.449 52.5869 104.449 53.1275V67.8084C104.449 68.3487 104.749 68.8591 105.229 69.1293L117.869 76.3347C118.349 76.6048 118.919 76.6048 119.37 76.3347L127.025 72.0719C127.266 71.9516 127.416 71.6815 127.416 71.4113C127.416 71.1412 127.266 70.871 127.025 70.7507L114.236 63.3952C113.996 63.2453 113.846 63.0051 113.846 62.7349V58.1415C113.846 57.8713 113.996 57.6012 114.236 57.4809L118.229 55.1991C118.346 55.1255 118.481 55.0865 118.619 55.0865C118.757 55.0865 118.893 55.1255 119.01 55.1991L123.002 57.4809C123.243 57.631 123.393 57.871 123.393 58.1415V61.7442C123.393 62.0143 123.543 62.2845 123.783 62.4045C124.023 62.5546 124.323 62.5546 124.564 62.4045L132.129 57.9911Z"
        fill="#8CCED7" />
    <path
        d="M118.529 57.3006C118.574 57.2712 118.626 57.2556 118.679 57.2556C118.733 57.2556 118.785 57.2712 118.829 57.3006L121.261 58.7116C121.351 58.7714 121.411 58.8615 121.411 58.9818V61.8039C121.411 61.9239 121.351 62.014 121.261 62.074L118.829 63.4851C118.785 63.5144 118.733 63.53 118.679 63.53C118.626 63.53 118.574 63.5144 118.529 63.4851L116.097 62.074C116.007 62.014 115.947 61.9239 115.947 61.8039V58.9818C115.947 58.8615 116.007 58.7714 116.097 58.7116L118.529 57.3006Z"
        fill="#8CCED7" />
    <path
        d="M49.8675 44.5111C49.6342 44.3783 49.3704 44.3085 49.1019 44.3085C48.8335 44.3085 48.5697 44.3783 48.3364 44.5111L35.697 51.8061C35.2164 52.0763 34.9463 52.5867 34.9463 53.127V67.7482C34.9463 68.2885 35.2465 68.7989 35.697 69.0691L48.3364 76.3646C48.5697 76.4974 48.8335 76.5672 49.1019 76.5672C49.3704 76.5672 49.6342 76.4974 49.8675 76.3646L62.5071 69.0691C62.9874 68.7989 63.2579 68.2885 63.2579 67.7482V53.1273C63.2579 52.5869 62.9573 52.0765 62.5071 51.8064L49.8675 44.5111Z"
        fill="#8CCED7" />
    <mask id="mask0_32_72" style="mask-type:luminance" maskUnits="userSpaceOnUse" x="34" y="44"
        width="30" height="33">
        <path
            d="M49.8675 44.5111C49.6342 44.3783 49.3704 44.3085 49.1019 44.3085C48.8335 44.3085 48.5697 44.3783 48.3364 44.5111L35.697 51.8061C35.2164 52.0763 34.9463 52.5867 34.9463 53.127V67.7482C34.9463 68.2885 35.2465 68.7989 35.697 69.0691L48.3364 76.3646C48.5697 76.4974 48.8335 76.5672 49.1019 76.5672C49.3704 76.5672 49.6342 76.4974 49.8675 76.3646L62.5071 69.0691C62.9874 68.7989 63.2579 68.2885 63.2579 67.7482V53.1273C63.2579 52.5869 62.9573 52.0765 62.5071 51.8064L49.8675 44.5111Z"
            fill="black" />
    </mask>
    <g mask="url(#mask0_32_72)">
        <path
            d="M62.537 51.8064L49.8376 44.5111C49.7128 44.4481 49.582 44.3978 49.4471 44.361L35.2164 68.7394C35.3343 68.8834 35.4767 69.0053 35.637 69.0997L48.3364 76.3953C48.6967 76.6054 49.117 76.6654 49.5071 76.5451L62.8674 52.1069C62.7773 51.9869 62.657 51.8962 62.537 51.8064Z"
            fill="#8CCED7" />
    </g>
    <mask id="mask1_32_72" style="mask-type:luminance" maskUnits="userSpaceOnUse" x="34" y="44"
        width="30" height="33">
        <path
            d="M49.8675 44.5111C49.6342 44.3783 49.3704 44.3085 49.1019 44.3085C48.8335 44.3085 48.5697 44.3783 48.3364 44.5111L35.697 51.8061C35.2164 52.0763 34.9463 52.5867 34.9463 53.127V67.7482C34.9463 68.2885 35.2465 68.7989 35.697 69.0691L48.3364 76.3646C48.5697 76.4974 48.8335 76.5672 49.1019 76.5672C49.3704 76.5672 49.6342 76.4974 49.8675 76.3646L62.5071 69.0691C62.9874 68.7989 63.2579 68.2885 63.2579 67.7482V53.1273C63.2579 52.5869 62.9573 52.0765 62.5071 51.8064L49.8675 44.5111Z"
            fill="black" />
    </mask>
    <g mask="url(#mask1_32_72)">
        <path fill-rule="evenodd" clip-rule="evenodd"
            d="M62.5671 69.0693C62.9274 68.8592 63.1976 68.4989 63.3179 68.1087L49.3869 44.3308C49.0266 44.2708 48.6362 44.3007 48.3063 44.5108L35.6967 51.7765L49.2967 76.575C49.4945 76.5426 49.6866 76.482 49.8672 76.395L62.5669 69.0696L62.5671 69.0693Z"
            fill="#8CCED7" />
        <path fill-rule="evenodd" clip-rule="evenodd"
            d="M62.5671 69.0694L49.8976 76.3649C49.7187 76.4561 49.5259 76.5169 49.3271 76.5449L49.5674 76.9953L63.6179 68.8595V68.6792L63.2576 68.0786C63.1976 68.4989 62.9274 68.8592 62.5671 69.0694Z"
            fill="#8CCED7" />
        <path fill-rule="evenodd" clip-rule="evenodd"
            d="M62.5671 69.0694L49.8976 76.3649C49.7187 76.4561 49.5259 76.5169 49.3271 76.5449L49.5674 76.9953L63.6179 68.8595V68.6792L63.2576 68.0786C63.1976 68.4989 62.9274 68.8592 62.5671 69.0694Z"
            fill="#8CCED7" />
    </g>
</svg>