<svg xmlns="http://www.w3.org/2000/svg" width="85" height="85" viewBox="0 0 85 85" fill="none">
    <g clip-path="url(#clip0_32_68)">
        <path
            d="M0 42.5V85H85V0H0V42.5ZM68.4941 39.1106C70.6536 39.6498 72.2978 40.6194 73.8198 42.1813C74.5955 43.01 75.7562 44.532 75.8545 44.9066C75.8811 45.0181 72.1889 47.4937 69.947 48.8777C69.8647 48.9334 69.5327 48.5881 69.1714 48.0462C68.0797 46.4552 66.9295 45.7645 65.1737 45.6397C62.5998 45.4723 60.9397 46.8164 60.953 49.0716C60.9397 49.6241 61.0645 50.1792 61.3116 50.6627C61.88 51.8394 62.9452 52.5433 66.2363 53.9697C72.3244 56.5834 74.9248 58.3127 76.5425 60.7617C78.3541 63.5003 78.7552 67.8725 77.5386 71.137C76.1839 74.6645 72.8344 77.0711 68.1302 77.86C66.6772 78.123 63.2188 78.0805 61.6542 77.7909C58.2383 77.1827 55.0003 75.4933 53.0081 73.2806C52.2192 72.4227 50.6972 70.1675 50.7955 70.0161C50.838 69.9603 51.1833 69.7398 51.5711 69.5167C51.9589 69.2936 53.3827 68.4648 54.7267 67.6892L57.1758 66.2655L57.6884 67.0252C58.4083 68.1169 59.9702 69.6123 60.9131 70.1091C63.6252 71.5487 67.3466 71.3416 69.1873 69.6947C69.9338 69.0731 70.3508 68.1169 70.295 67.15C70.295 66.1672 70.1702 65.7262 69.6575 64.9905C68.9934 64.0502 67.652 63.248 63.8191 61.5878C59.4336 59.6913 57.537 58.5305 55.8238 56.6631C54.7453 55.4306 53.9431 53.9803 53.4862 52.4158C53.1675 51.2125 53.0852 48.195 53.3348 46.9917C54.2353 42.7444 57.4441 39.7986 62.05 38.9273C63.5455 38.6378 67.0305 38.7467 68.4967 39.108L68.4941 39.1106ZM48.5456 42.6673L48.5722 46.1391H37.5036V77.5864H29.673V46.1391H18.6203V42.7364C18.6203 40.8398 18.6628 39.2647 18.7159 39.2222C18.7584 39.1664 25.4814 39.1398 33.6441 39.1531L48.5031 39.1956L48.5456 42.6673Z"
            fill="#8CCED7" />
    </g>
    <defs>
        <clipPath id="clip0_32_68">
            <rect width="85" height="85" fill="white" />
        </clipPath>
    </defs>
</svg>